<?xml version="1.0" encoding="utf-8"?>
<!-- Generator: Adobe Illustrator 27.0.0, SVG Export Plug-In . SVG Version: 6.00 Build 0)  -->
<svg version="1.1" id="레이어_1" xmlns="http://www.w3.org/2000/svg" xmlns:xlink="http://www.w3.org/1999/xlink" x="0px"
	 y="0px" viewBox="0 0 168 154" style="enable-background:new 0 0 168 154;" xml:space="preserve">
<style type="text/css">
	.st0{fill-rule:evenodd;clip-rule:evenodd;fill:#FFF7D9;stroke:#000000;stroke-width:2;stroke-dasharray:4;}
</style>
<path class="st0" d="M82.9,2c12.5,0,25,2.1,36.5,6.5c29,11,43.6,30.1,46.3,53c0.3,2.5,0.4,4.9,0.4,7.3v0c0,47.4-52,85.1-52.2,85.2
	c33.7-40.4,10.2-49.3-12.5-45.9c-18.4,2.8-47.1-0.2-65-5.7c-8.5-2.6-17.8-7.9-24.1-14c-6.4-6.2-11.2-16-12-24.9
	c-0.1-1.2-0.2-2.3-0.2-3.5v-0.1c0-17.7,11.9-34.1,27-43C43.5,7.1,63.2,2,82.7,2H82.9z"/>
</svg>
