<?xml version="1.0" encoding="utf-8"?>
<!-- Generator: Adobe Illustrator 25.4.8, SVG Export Plug-In . SVG Version: 6.00 Build 0)  -->
<svg version="1.1" id="레이어_1" xmlns="http://www.w3.org/2000/svg" xmlns:xlink="http://www.w3.org/1999/xlink" x="0px"
	 y="0px" viewBox="0 0 56 56" style="enable-background:new 0 0 56 56;" xml:space="preserve">
<style type="text/css">
	.st0{fill-rule:evenodd;clip-rule:evenodd;fill:#FFDC32;}
	.st1{fill:none;stroke:#000000;}
</style>
<g>
	<g>
		<path class="st0" d="M18,16.2l-9.6,10c-0.6,0.6-0.6,1.6,0,2.2l18.5,19.1c0.6,0.6,1.5,0.6,2.1,0.1c0,0,0,0,0.1-0.1l18.5-19.1
			c0.6-0.6,0.6-1.6,0-2.2l-9.6-10c-0.6-0.6-1.4-0.9-2.2-0.9H20.2C19.4,15.3,18.6,15.6,18,16.2 M8.1,27.2h39.7"/>
		<path class="st0" d="M36.1,15.6v11.6h-0.6L28,15.6l-7.4,11.6h-0.6V15.6 M19.9,27.2l7.4,20.1c0.2,0.6,1,0.6,1.3,0l7.4-20.1"/>
	</g>
	<g>
		<path class="st1" d="M28,8v4.8 M39.5,8.6l-2.3,4.2 M16.5,8.6l2.3,4.2 M18,16.2l-9.6,10c-0.6,0.6-0.6,1.6,0,2.2l18.5,19.1
			c0.6,0.6,1.5,0.6,2.1,0.1c0,0,0,0,0.1-0.1l18.5-19.1c0.6-0.6,0.6-1.6,0-2.2l-9.6-10c-0.6-0.6-1.4-0.9-2.2-0.9H20.2
			C19.4,15.3,18.6,15.6,18,16.2z M8.1,27.2h39.7"/>
		<path class="st1" d="M36.1,15.6v11.6h-0.6L28,15.6l-7.4,11.6h-0.6V15.6 M19.9,27.2l7.4,20.1c0.2,0.6,1,0.6,1.3,0l7.4-20.1"/>
	</g>
</g>
</svg>
