<?xml version="1.0" encoding="utf-8"?>
<!-- Generator: Adobe Illustrator 25.4.8, SVG Export Plug-In . SVG Version: 6.00 Build 0)  -->
<svg version="1.1" id="레이어_1" xmlns="http://www.w3.org/2000/svg" xmlns:xlink="http://www.w3.org/1999/xlink" x="0px"
	 y="0px" viewBox="0 0 56 56" style="enable-background:new 0 0 56 56;" xml:space="preserve">
<style type="text/css">
	.st0{fill-rule:evenodd;clip-rule:evenodd;fill:#FFDC32;}
	.st1{fill-rule:evenodd;clip-rule:evenodd;fill:#FFFFFF;stroke:#000000;}
	.st2{fill:none;stroke:#000000;}
</style>
<g>
	<path class="st0" d="M32.4,32.6c2.2-2.2,5.9-2.2,8.1,0l5.8,5.7c2.2,2.2,2.2,5.7,0.1,7.9c0,0,0,0.1-0.1,0.1c-2.2,2.2-5.9,2.2-8.1,0
		l-5.8-5.7C30.2,38.5,30.2,34.9,32.4,32.6C32.4,32.7,32.4,32.7,32.4,32.6"/>
	<g>
		<path class="st1" d="M11.6,30.3c-5.1-5-4.6-13.8,0.5-18.8c5.1-5,12.9-4.5,18,0.5c5,5,5.1,13.1,0.2,18.1c-0.1,0.1-0.1,0.1-0.2,0.2
			C25,35.4,16.7,35.4,11.6,30.3L11.6,30.3z"/>
		<path class="st2" d="M14.4,14.8c3.6-3.5,9.4-3.5,13,0 M32.4,32.6c2.2-2.2,5.9-2.2,8.1,0l5.8,5.7c2.2,2.2,2.2,5.7,0.1,7.9
			c0,0,0,0.1-0.1,0.1c-2.2,2.2-5.9,2.2-8.1,0l-5.8-5.7C30.2,38.5,30.2,34.9,32.4,32.6C32.4,32.7,32.4,32.7,32.4,32.6L32.4,32.6z
			 M33.6,31.5l-2.3-2.3 M31.3,33.8l-2.3-2.3"/>
	</g>
</g>
</svg>
