<?xml version="1.0" encoding="utf-8"?>
<!-- Generator: Adobe Illustrator 25.4.8, SVG Export Plug-In . SVG Version: 6.00 Build 0)  -->
<svg version="1.1" id="레이어_1" xmlns="http://www.w3.org/2000/svg" xmlns:xlink="http://www.w3.org/1999/xlink" x="0px"
	 y="0px" viewBox="0 0 56 56" style="enable-background:new 0 0 56 56;" xml:space="preserve">
<style type="text/css">
	.st0{fill-rule:evenodd;clip-rule:evenodd;fill:#FFDC32;}
	.st1{fill-rule:evenodd;clip-rule:evenodd;fill:#FFFFFF;stroke:#000000;}
	.st2{fill:none;stroke:#000000;}
</style>
<g>
	<path class="st0" d="M18,44.7H9.7C8.8,44.7,8,43.9,8,43c0,0,0,0,0,0V25.6c0-0.9,0.7-1.7,1.7-1.7h7.5C17.2,23.9,18.9,44.7,18,44.7"
		/>
	<g>
		<path class="st1" d="M33.1,23.9h11c2.8,0,4.5,2.8,3.6,5.5l-4.7,14.1c-0.9,2.7-3.5,4.5-6.3,4.5H26.1c-3,0-8.9-1-8.9-6.6V23.9
			L23.4,11c0.8-1.6,1.9-3.5,5-2.8c2.5,0.7,3.3,4.1,2.7,6.5l-1.3,5.2C29.4,21.9,30.9,23.9,33.1,23.9z"/>
		<path class="st2" d="M18,44.7H9.7C8.8,44.7,8,43.9,8,43c0,0,0,0,0,0V25.6c0-0.9,0.7-1.7,1.7-1.7h7.5"/>
	</g>
</g>
</svg>
