<?xml version="1.0" encoding="utf-8"?>
<!-- Generator: Adobe Illustrator 27.0.0, SVG Export Plug-In . SVG Version: 6.00 Build 0)  -->
<svg version="1.1" id="레이어_1" xmlns="http://www.w3.org/2000/svg" xmlns:xlink="http://www.w3.org/1999/xlink" x="0px"
	 y="0px" viewBox="0 0 24 24" style="enable-background:new 0 0 24 24;" xml:space="preserve">
<style type="text/css">
	.st0{fill-rule:evenodd;clip-rule:evenodd;fill:#60584C;}
</style>
<g transform="translate(.938)">
	<path class="st0" d="M11.1,3.5L11.1,3.5c1.1,0,2,0.9,2,2v13c0,1.1-0.9,2-2,2l0,0c-1.1,0-2-0.9-2-2v-13C9.1,4.4,10,3.5,11.1,3.5z"/>
	<path class="st0" d="M19.6,12c0,1.1-0.9,2-2,2h-13c-1.1,0-2-0.9-2-2s0.9-2,2-2h13C18.7,10,19.6,10.9,19.6,12z"/>
</g>
</svg>
