<?xml version="1.0" encoding="utf-8"?>
<!-- Generator: Adobe Illustrator 27.2.0, SVG Export Plug-In . SVG Version: 6.00 Build 0)  -->
<svg version="1.1" id="레이어_1" xmlns="http://www.w3.org/2000/svg" xmlns:xlink="http://www.w3.org/1999/xlink" x="0px"
	 y="0px" viewBox="0 0 24 24" style="enable-background:new 0 0 24 24;" xml:space="preserve">
<style type="text/css">
	.st0{fill-rule:evenodd;clip-rule:evenodd;fill:#3E82F1;}
	.st1{fill-rule:evenodd;clip-rule:evenodd;fill:#32A753;}
	.st2{fill-rule:evenodd;clip-rule:evenodd;fill:#F9BB00;}
	.st3{fill-rule:evenodd;clip-rule:evenodd;fill:#E74133;}
</style>
<g>
	<path class="st0" d="M21,12.3c0-0.7-0.1-1.3-0.2-1.9h-8.9V14H17c-0.2,1.2-0.9,2.2-1.9,2.9v2.4h3.1C20,17.6,21,15.2,21,12.3z"/>
	<path class="st1" d="M18.2,19.2l-3.1-2.4c-0.8,0.6-1.9,0.9-3.2,0.9c-2.5,0-4.6-1.7-5.3-3.9H3.4v2.5c1.6,3.2,4.9,5.2,8.5,5.2
		C14.5,21.5,16.6,20.7,18.2,19.2z"/>
	<path class="st2" d="M6.6,13.9c-0.2-0.6-0.3-1.2-0.3-1.8c0-0.6,0.1-1.2,0.3-1.8V7.8H3.4c-0.7,1.3-1,2.8-1,4.3c0,1.5,0.3,2.9,1,4.3
		L6.6,13.9z"/>
	<path class="st3" d="M11.9,6.4c1.4,0,2.6,0.5,3.6,1.4l2.7-2.7c-1.6-1.5-3.8-2.5-6.3-2.5c-3.6,0-6.9,2-8.5,5.2l3.2,2.5
		C7.4,8,9.4,6.4,11.9,6.4z"/>
</g>
</svg>
